<?xml version="1.0" encoding="UTF-8"?>
<!-- Generator: visioncortex VTracer 0.6.3 -->
<svg version="1.1" xmlns="http://www.w3.org/2000/svg" width="1280" height="720">
<path d="M0 0 C217.8 0 435.6 0 660 0 C660 207.9 660 415.8 660 630 C442.2 630 224.4 630 0 630 C0 422.1 0 214.2 0 0 Z M56 53 C56 226.91 56 400.82 56 580 C238.16 580 420.32 580 608 580 C608 406.09 608 232.18 608 53 C425.84 53 243.68 53 56 53 Z " fill="#000100" transform="translate(344,38)"/>
<path d="M0 0 C1.23 -0.01 2.45 -0.03 3.71 -0.04 C5.07 -0.05 6.42 -0.05 7.77 -0.06 C8.45 -0.07 9.13 -0.07 9.83 -0.07 C13.44 -0.09 17.05 -0.11 20.67 -0.12 C24.37 -0.13 28.08 -0.16 31.78 -0.2 C34.65 -0.23 37.52 -0.24 40.39 -0.24 C42.41 -0.25 44.43 -0.27 46.45 -0.3 C59.28 -0.27 68.68 2.99 78 11.8 C83.45 17.58 85.39 23.81 85.65 31.68 C85.32 41.26 82.22 47.58 75.28 54.18 C73.96 55.2 72.63 56.21 71.28 57.18 C71.92 57.52 72.56 57.86 73.22 58.21 C81.02 62.58 88.05 67.92 90.84 76.79 C92.51 85.89 92.23 95.17 87.28 103.18 C79.27 113.38 69.74 116.17 57.28 118.18 C52.22 118.54 47.2 118.53 42.13 118.47 C40.74 118.46 39.34 118.46 37.95 118.46 C34.34 118.45 30.73 118.42 27.11 118.38 C23.4 118.35 19.7 118.34 15.99 118.32 C8.75 118.29 1.51 118.24 -5.72 118.18 C-5.88 102.94 -6.02 87.7 -6.17 72.46 C-6.23 65.39 -6.3 58.31 -6.37 51.24 C-6.44 44.42 -6.5 37.6 -6.56 30.78 C-6.59 28.17 -6.61 25.56 -6.64 22.95 C-6.68 19.31 -6.71 15.67 -6.74 12.03 C-6.76 10.94 -6.77 9.85 -6.78 8.73 C-6.79 7.74 -6.8 6.75 -6.8 5.74 C-6.81 4.88 -6.82 4.02 -6.83 3.13 C-6.6 -1.03 -3.48 0.03 0 0 Z M14.28 21.18 C14 24.09 14 24.09 14.08 27.5 C14.09 28.75 14.1 30.01 14.1 31.31 C14.12 32.62 14.14 33.94 14.15 35.3 C14.16 36.64 14.17 37.98 14.18 39.32 C14.2 42.61 14.24 45.89 14.28 49.18 C18.97 49.23 23.67 49.26 28.36 49.29 C29.96 49.3 31.55 49.31 33.15 49.33 C35.45 49.35 37.76 49.36 40.06 49.37 C41.11 49.39 41.11 49.39 42.19 49.4 C48.23 49.4 53.73 48.51 59.15 45.68 C62.39 41.87 63.09 38.11 63.28 33.18 C62.82 28.96 61.92 25.54 58.57 22.76 C49.93 18.02 39.45 18.99 29.9 18.99 C27.98 18.97 27.98 18.97 26.02 18.95 C24.8 18.95 23.57 18.95 22.32 18.95 C20.65 18.94 20.65 18.94 18.95 18.93 C16.12 18.9 16.12 18.9 14.28 21.18 Z M63.28 31.18 C64.28 33.18 64.28 33.18 64.28 33.18 Z M63.28 36.18 C64.28 38.18 64.28 38.18 64.28 38.18 Z M15.28 68.18 C13.87 71 14.17 73.35 14.18 76.5 C14.18 77.75 14.19 79.01 14.19 80.31 C14.2 81.62 14.21 82.94 14.22 84.3 C14.22 85.64 14.22 86.98 14.23 88.32 C14.24 91.61 14.26 94.89 14.28 98.18 C20.11 98.25 25.95 98.31 31.78 98.34 C33.77 98.36 35.75 98.38 37.73 98.4 C40.59 98.44 43.45 98.46 46.31 98.47 C47.19 98.49 48.06 98.5 48.97 98.52 C55.69 98.52 60.96 97.3 66.72 93.61 C69.6 89.12 69.7 84.08 68.94 78.89 C68.03 75.73 67.13 73.8 64.43 71.83 C59.85 69.44 55.43 68.05 50.24 68.06 C49.46 68.06 48.68 68.06 47.88 68.06 C47.05 68.07 46.21 68.07 45.36 68.08 C44.5 68.08 43.64 68.08 42.75 68.08 C40.01 68.09 37.27 68.1 34.53 68.11 C32.67 68.12 30.81 68.12 28.95 68.13 C24.39 68.14 19.83 68.16 15.28 68.18 Z " fill="#FDFDFD" transform="translate(464.72216796875,133.822998046875)"/>
<path d="M0 0 C6.6 0.33 13.2 0.66 20 1 C20 39.28 20 77.56 20 117 C2 117 2 117 -2.33 113.7 C-3.85 111.52 -3.85 111.52 -5.25 109.12 C-6.38 107.46 -7.51 105.8 -8.64 104.13 C-9.47 102.85 -9.47 102.85 -10.31 101.54 C-12.99 97.52 -15.99 93.78 -19 90 C-20.16 88.51 -21.32 87.01 -22.48 85.52 C-24.87 82.45 -27.25 79.39 -29.64 76.32 C-47.61 53.24 -47.61 53.24 -52.54 46.57 C-52.96 46.01 -53.37 45.46 -53.79 44.88 C-54.93 43.35 -56.06 41.81 -57.19 40.27 C-58.8 37.93 -58.8 37.93 -61 37 C-61 63.4 -61 89.8 -61 117 C-67.6 117 -74.2 117 -81 117 C-81 78.72 -81 40.44 -81 1 C-74.4 1 -67.8 1 -61 1 C-54.37 7.63 -54.37 7.63 -52.55 10.82 C-49.91 15.23 -46.85 19.21 -43.69 23.25 C-42.59 24.69 -41.49 26.13 -40.39 27.58 C-36.95 32.07 -33.48 36.54 -30 41 C-25.32 47 -20.68 53.02 -16.06 59.06 C-15.52 59.77 -14.98 60.47 -14.43 61.2 C-12.17 64.15 -9.93 67.1 -7.7 70.06 C-7.08 70.89 -6.46 71.71 -5.81 72.56 C-5.3 73.24 -4.79 73.93 -4.27 74.63 C-3.85 75.08 -3.43 75.53 -3 76 C-2.34 76 -1.68 76 -1 76 C-1 75.06 -1 74.13 -1.01 73.16 C-1.03 64.34 -1.04 55.53 -1.05 46.72 C-1.06 42.18 -1.06 37.65 -1.08 33.12 C-1.09 28.75 -1.09 24.38 -1.09 20.01 C-1.1 18.34 -1.1 16.67 -1.11 15 C-1.11 12.66 -1.11 10.33 -1.11 8 C-1.12 7.3 -1.12 6.6 -1.12 5.88 C-1.11 1.11 -1.11 1.11 0 0 Z " fill="#FDFDFD" transform="translate(540,295)"/>
<path d="M0 0 C1.23 -0.01 2.45 -0.03 3.71 -0.04 C5.07 -0.05 6.42 -0.05 7.77 -0.06 C8.45 -0.07 9.13 -0.07 9.83 -0.07 C13.44 -0.09 17.05 -0.11 20.67 -0.12 C24.37 -0.13 28.08 -0.16 31.78 -0.2 C34.65 -0.23 37.52 -0.24 40.39 -0.24 C42.41 -0.25 44.43 -0.27 46.45 -0.3 C59.92 -0.27 70.71 3.75 80.53 12.99 C87.83 20.58 89.46 28.16 89.53 38.36 C89.55 39.18 89.57 39.99 89.59 40.83 C89.65 50.92 86.78 57.58 79.82 64.87 C74.91 69.32 70.04 73.18 63.28 73.18 C66.28 78.68 69.69 83.69 73.4 88.74 C74.56 90.33 75.72 91.91 76.87 93.5 C77.44 94.29 78.02 95.07 78.61 95.88 C81.47 99.82 84.29 103.79 87.12 107.76 C88.73 110.02 90.34 112.25 92.05 114.43 C93.28 116.18 93.28 116.18 93.28 118.18 C89.42 118.41 85.57 118.55 81.72 118.68 C80.63 118.74 79.54 118.81 78.42 118.88 C70.58 119.07 70.58 119.07 67.22 116.77 C65.34 114.68 63.82 112.53 62.28 110.18 C61.63 109.29 60.99 108.39 60.33 107.48 C58.23 104.55 56.18 101.59 54.15 98.61 C52.78 96.61 51.4 94.61 50.02 92.61 C49.38 91.67 48.74 90.74 48.08 89.77 C46.51 87.52 44.91 85.3 43.29 83.09 C41.28 80.18 41.28 80.18 41.28 78.18 C37.13 78.15 32.99 78.13 28.84 78.11 C27.66 78.11 26.47 78.1 25.25 78.09 C24.13 78.09 23 78.08 21.84 78.08 C20.8 78.07 19.76 78.07 18.69 78.06 C16.33 77.9 16.33 77.9 15.28 79.18 C15.12 82.06 15.02 84.92 14.96 87.81 C14.94 88.67 14.92 89.53 14.9 90.42 C14.83 93.2 14.77 95.97 14.72 98.74 C14.67 100.61 14.63 102.49 14.58 104.36 C14.48 108.97 14.38 113.57 14.28 118.18 C7.68 118.18 1.08 118.18 -5.72 118.18 C-5.88 102.94 -6.02 87.7 -6.17 72.46 C-6.23 65.39 -6.3 58.31 -6.37 51.24 C-6.44 44.42 -6.5 37.6 -6.56 30.78 C-6.59 28.17 -6.61 25.56 -6.64 22.95 C-6.68 19.31 -6.71 15.67 -6.74 12.03 C-6.76 10.94 -6.77 9.85 -6.78 8.73 C-6.79 7.74 -6.8 6.75 -6.8 5.74 C-6.81 4.88 -6.82 4.02 -6.83 3.13 C-6.6 -1.03 -3.48 0.03 0 0 Z M15.28 20.18 C13.72 23.3 14.16 26.61 14.18 30.03 C14.18 30.8 14.18 31.58 14.18 32.37 C14.19 34.85 14.2 37.33 14.22 39.8 C14.22 41.48 14.22 43.16 14.23 44.83 C14.24 48.95 14.26 53.06 14.28 57.18 C19.7 57.25 25.13 57.31 30.56 57.34 C32.4 57.36 34.24 57.38 36.09 57.4 C38.75 57.44 41.4 57.46 44.06 57.47 C44.88 57.49 45.7 57.5 46.54 57.52 C53.22 57.52 57.86 56.22 63.09 51.8 C66.9 47.23 67.71 43.42 67.51 37.58 C67.11 33.42 66.51 29.77 64.28 26.18 C57.69 20.94 51.19 20.02 43.01 20.08 C42.22 20.08 41.43 20.08 40.61 20.08 C38.08 20.09 35.55 20.1 33.03 20.11 C31.31 20.12 29.6 20.12 27.88 20.13 C23.68 20.14 19.48 20.16 15.28 20.18 Z M15.28 58.18 C15.28 58.51 15.28 58.84 15.28 59.18 C26.17 59.18 37.06 59.18 48.28 59.18 C48.28 58.85 48.28 58.52 48.28 58.18 C37.39 58.18 26.5 58.18 15.28 58.18 Z " fill="#FDFDFD" transform="translate(637.72216796875,133.822998046875)"/>
<path d="M0 0 C0.78 0 1.56 0 2.36 0.01 C3.58 0 3.58 0 4.83 0 C7.55 -0 10.26 -0 12.97 0 C14.85 0 16.72 0 18.6 -0 C22.54 -0 26.48 0 30.42 0.01 C35.48 0.01 40.54 0.01 45.6 0 C49.48 -0 53.35 -0 57.23 0 C59.1 0 60.96 0 62.83 -0 C65.43 -0 68.04 0 70.64 0.01 C71.81 0 71.81 0 73 0 C78.34 0.02 78.34 0.02 80.57 1.14 C80.57 7.41 80.57 13.68 80.57 20.14 C58.79 20.14 37.01 20.14 14.57 20.14 C14.57 29.38 14.57 38.62 14.57 48.14 C18.66 48.11 22.75 48.09 26.97 48.07 C30.22 48.05 33.48 48.04 36.74 48.03 C40.18 48.02 43.62 48.01 47.06 47.98 C51.01 47.96 54.96 47.95 58.9 47.94 C60.14 47.93 61.38 47.92 62.65 47.91 C63.79 47.91 64.93 47.91 66.11 47.91 C67.12 47.9 68.12 47.9 69.16 47.9 C71.57 48.14 71.57 48.14 73.57 50.14 C73.79 52.01 73.79 52.01 73.76 54.27 C73.76 55.07 73.75 55.88 73.74 56.71 C73.72 57.97 73.72 57.97 73.69 59.26 C73.68 60.11 73.67 60.96 73.66 61.83 C73.64 63.94 73.61 66.04 73.57 68.14 C72.86 68.15 72.14 68.16 71.41 68.17 C64.71 68.26 58.02 68.37 51.32 68.47 C47.88 68.53 44.44 68.58 41 68.63 C37.04 68.69 33.09 68.75 29.13 68.82 C27.89 68.84 26.65 68.85 25.37 68.87 C24.23 68.89 23.09 68.91 21.91 68.93 C20.9 68.95 19.89 68.96 18.85 68.98 C16.6 68.88 16.6 68.88 15.57 70.14 C15.41 72.21 15.32 74.28 15.25 76.36 C15.21 77.62 15.17 78.88 15.12 80.18 C15.08 81.52 15.04 82.86 15 84.2 C14.96 85.54 14.92 86.89 14.87 88.23 C14.77 91.53 14.67 94.83 14.57 98.14 C15.38 98.13 16.19 98.13 17.02 98.13 C24.64 98.11 32.27 98.09 39.89 98.08 C43.81 98.08 47.73 98.07 51.65 98.06 C55.43 98.05 59.21 98.04 62.99 98.04 C64.43 98.04 65.87 98.04 67.32 98.03 C69.34 98.02 71.35 98.02 73.37 98.02 C75.1 98.02 75.1 98.02 76.86 98.02 C79.57 98.14 79.57 98.14 81.57 99.14 C81.57 105.41 81.57 111.68 81.57 118.14 C52.86 118.14 24.15 118.14 -5.43 118.14 C-5.72 88.94 -5.72 88.94 -5.86 74.56 C-5.93 66.78 -6 58.99 -6.08 51.2 C-6.15 44.38 -6.21 37.56 -6.28 30.74 C-6.3 28.13 -6.33 25.52 -6.35 22.91 C-6.39 19.27 -6.42 15.63 -6.45 11.99 C-6.47 10.9 -6.48 9.81 -6.49 8.68 C-6.5 7.7 -6.51 6.71 -6.52 5.7 C-6.52 4.84 -6.53 3.97 -6.54 3.09 C-6.31 -1.03 -3.45 0.01 0 0 Z " fill="#FDFDFD" transform="translate(811.4329528808594,133.86447143554688)"/>
<path d="M0 0 C1.56 0.01 3.12 0.04 4.68 0.06 C5.53 0.07 6.37 0.08 7.25 0.09 C10.07 0.12 12.89 0.16 15.71 0.2 C17.65 0.23 19.6 0.25 21.55 0.27 C26.69 0.34 31.83 0.41 36.98 0.48 C42.22 0.55 47.46 0.61 52.7 0.68 C62.99 0.81 73.28 0.94 83.58 1.08 C83.58 7.02 83.58 12.96 83.58 19.08 C81.64 19.11 79.71 19.13 77.72 19.16 C71.34 19.24 64.97 19.33 58.6 19.42 C54.73 19.48 50.86 19.53 47 19.58 C43.27 19.63 39.54 19.68 35.81 19.74 C34.39 19.76 32.96 19.77 31.54 19.79 C29.55 19.82 27.56 19.85 25.57 19.88 C23.86 19.9 23.86 19.9 22.13 19.92 C19.64 19.8 19.64 19.8 18.58 21.08 C18.42 23.08 18.33 25.08 18.26 27.09 C18.22 28.3 18.18 29.52 18.13 30.77 C18.09 32.05 18.05 33.33 18.01 34.64 C17.97 35.93 17.93 37.21 17.88 38.53 C17.78 41.72 17.68 44.9 17.58 48.08 C18.64 48.08 18.64 48.08 19.73 48.08 C26.41 48.06 33.09 48.04 39.77 48.03 C43.2 48.03 46.64 48.02 50.07 48.01 C54.02 47.99 57.97 47.99 61.91 47.98 C63.15 47.98 64.39 47.97 65.66 47.97 C66.8 47.97 67.94 47.97 69.12 47.97 C70.63 47.97 70.63 47.97 72.17 47.96 C74.58 48.08 74.58 48.08 76.58 49.08 C76.58 55.35 76.58 61.62 76.58 68.08 C57.44 68.08 38.3 68.08 18.58 68.08 C18.58 77.65 18.58 87.22 18.58 97.08 C21.33 98.46 23.59 98.25 26.68 98.29 C27.96 98.31 29.24 98.33 30.56 98.35 C31.96 98.37 33.37 98.38 34.77 98.4 C36.2 98.42 37.64 98.44 39.07 98.46 C42.84 98.52 46.61 98.57 50.38 98.61 C54.23 98.66 58.08 98.72 61.92 98.78 C69.48 98.88 77.03 98.98 84.58 99.08 C84.58 105.02 84.58 110.96 84.58 117.08 C55.54 117.08 26.5 117.08 -3.42 117.08 C-4.62 114.68 -4.55 113.2 -4.55 110.52 C-4.55 109.56 -4.56 108.6 -4.56 107.61 C-4.56 106.55 -4.55 105.5 -4.55 104.41 C-4.55 103.3 -4.56 102.19 -4.56 101.04 C-4.56 97.36 -4.56 93.67 -4.56 89.98 C-4.56 87.43 -4.56 84.88 -4.56 82.33 C-4.56 76.98 -4.56 71.63 -4.55 66.28 C-4.55 60.09 -4.55 53.89 -4.56 47.7 C-4.56 41.75 -4.56 35.8 -4.56 29.85 C-4.56 27.31 -4.56 24.78 -4.56 22.24 C-4.56 18.7 -4.56 15.17 -4.55 11.63 C-4.55 10.57 -4.56 9.51 -4.56 8.42 C-4.56 7.46 -4.55 6.5 -4.55 5.52 C-4.55 4.68 -4.55 3.84 -4.55 2.98 C-4.32 -0.42 -3.51 0.08 0 0 Z " fill="#FDFDFD" transform="translate(461.42311096191406,456.91770935058594)"/>
<path d="M0 0 C4.97 3.96 4.97 3.96 6.74 6.18 C6.81 10.18 3.84 12.55 1.24 15.31 C-1.87 18.49 -1.87 18.49 -4.26 22.18 C-7.5 21.59 -9.31 20.54 -11.82 18.43 C-22.06 10.46 -32.53 8.22 -45.26 9.18 C-55.12 11.37 -63.12 16.57 -68.88 24.87 C-75.35 35.7 -77.91 46.98 -75.13 59.43 C-72.46 68.58 -68.6 77.75 -60.2 82.81 C-49.55 88.31 -37.77 90.14 -26.07 87.06 C-18.86 84.58 -12.5 80.72 -7.26 75.18 C-3.18 76.79 -0.49 79.72 2.49 82.81 C3 83.32 3.51 83.84 4.03 84.37 C5.27 85.64 6.51 86.91 7.74 88.18 C3.43 98.12 -7.75 103.29 -17.26 107.18 C-31.4 111.75 -50.41 111.4 -64.17 105.79 C-80.43 97.31 -92.48 83.61 -98.26 66.18 C-98.61 64.86 -98.94 63.52 -99.26 62.18 C-99.44 61.6 -99.62 61.02 -99.8 60.42 C-103.15 44 -98.3 26.9 -89.26 13.18 C-67.46 -15.23 -28.81 -20.73 0 0 Z M-99.26 41.18 C-98.26 45.18 -98.26 45.18 -98.26 45.18 Z M-99.26 54.18 C-98.26 58.18 -98.26 58.18 -98.26 58.18 Z " fill="#FDFDFD" transform="translate(898.2578125,304.81640625)"/>
<path d="M0 0 C1.7 0.01 3.41 0.04 5.11 0.06 C6.03 0.07 6.96 0.08 7.92 0.09 C10.99 0.12 14.07 0.16 17.15 0.2 C19.28 0.23 21.41 0.25 23.54 0.27 C29.15 0.34 34.77 0.41 40.38 0.48 C46.1 0.55 51.83 0.61 57.55 0.68 C68.79 0.81 80.03 0.94 91.27 1.08 C91.27 7.35 91.27 13.62 91.27 20.08 C79.39 20.08 67.51 20.08 55.27 20.08 C54.94 52.09 54.61 84.1 54.27 117.08 C47.34 117.08 40.41 117.08 33.27 117.08 C31.59 113.72 32.14 109.92 32.16 106.23 C32.16 105.31 32.16 104.39 32.16 103.45 C32.16 100.41 32.17 97.37 32.18 94.32 C32.18 92.22 32.18 90.12 32.18 88.01 C32.18 82.46 32.19 76.92 32.2 71.37 C32.21 65.71 32.22 60.06 32.22 54.4 C32.24 43.29 32.25 32.19 32.27 21.08 C20.39 20.75 8.51 20.42 -3.73 20.08 C-5.38 16.79 -4.87 13.14 -4.85 9.52 C-4.86 8.73 -4.86 7.93 -4.86 7.12 C-4.85 0.11 -4.85 0.11 0 0 Z " fill="#FDFDFD" transform="translate(638.7268218994141,294.91770935058594)"/>
<path d="M0 0 C6.93 0.33 13.86 0.66 21 1 C21 32.68 21 64.36 21 97 C40.33 96.92 40.33 96.92 59.65 96.82 C62.07 96.81 64.48 96.81 66.9 96.8 C68.16 96.79 69.43 96.78 70.73 96.77 C71.93 96.77 73.12 96.77 74.36 96.77 C75.4 96.77 76.44 96.76 77.52 96.76 C80 97 80 97 82 99 C82 104.94 82 110.88 82 117 C54.94 117 27.88 117 0 117 C-1.2 114.6 -1.13 113.12 -1.13 110.44 C-1.13 109.48 -1.13 108.52 -1.14 107.53 C-1.13 106.47 -1.13 105.41 -1.13 104.32 C-1.13 103.21 -1.13 102.1 -1.13 100.96 C-1.14 97.27 -1.14 93.59 -1.13 89.9 C-1.13 87.35 -1.13 84.8 -1.14 82.25 C-1.14 76.9 -1.14 71.55 -1.13 66.2 C-1.12 60 -1.13 53.81 -1.13 47.62 C-1.14 41.67 -1.14 35.72 -1.13 29.77 C-1.13 27.23 -1.13 24.69 -1.14 22.16 C-1.14 18.62 -1.13 15.08 -1.13 11.55 C-1.13 10.49 -1.13 9.43 -1.14 8.34 C-1.13 7.38 -1.13 6.42 -1.13 5.43 C-1.13 4.6 -1.13 3.76 -1.13 2.9 C-1 1 -1 1 0 0 Z " fill="#FDFDFD" transform="translate(646,457)"/>
<path d="M0 0 C0.33 0 0.66 0 1 0 C1 37.62 1 75.24 1 114 C0.67 114 0.34 114 0 114 C0 76.38 0 38.76 0 0 Z " fill="#FDFDFD" transform="translate(457,296)"/>
<path d="M0 0 C0.33 0 0.66 0 1 0 C1 37.29 1 74.58 1 113 C0.67 113 0.34 113 0 113 C0 75.71 0 38.42 0 0 Z " fill="#FDFDFD" transform="translate(457,136)"/>
<path d="M0 0 C0.33 0 0.66 0 1 0 C1 36.96 1 73.92 1 112 C0.67 112 0.34 112 0 112 C0 75.04 0 38.08 0 0 Z " fill="#FDFDFD" transform="translate(804,136)"/>
<path d="M0 0 C0.33 0 0.66 0 1 0 C1 36.96 1 73.92 1 112 C0.67 112 0.34 112 0 112 C0 75.04 0 38.08 0 0 Z " fill="#FDFDFD" transform="translate(630,136)"/>
<path d="M0 0 C30.03 0 60.06 0 91 0 C91 0.33 91 0.66 91 1 C60.97 1 30.94 1 0 1 C0 0.67 0 0.34 0 0 Z " fill="#FDFDFD" transform="translate(636,294)"/>
<path d="M0 0 C27.72 0 55.44 0 84 0 C84 0.33 84 0.66 84 1 C56.28 1 28.56 1 0 1 C0 0.67 0 0.34 0 0 Z " fill="#FDFDFD" transform="translate(459,456)"/>
<path d="M0 0 C20.13 0 40.26 0 61 0 C61 0.33 61 0.66 61 1 C40.87 1 20.74 1 0 1 C0 0.67 0 0.34 0 0 Z " fill="#FDFDFD" transform="translate(482,554)"/>
<path d="M0 0 C5.94 0 11.88 0 18 0 C18 0.33 18 0.66 18 1 C12.06 1 6.12 1 0 1 C0 0.67 0 0.34 0 0 Z " fill="#FDFDFD" transform="translate(647,456)"/>
<path d="M0 0 C5.61 0 11.22 0 17 0 C17 0.33 17 0.66 17 1 C11.39 1 5.78 1 0 1 C0 0.67 0 0.34 0 0 Z " fill="#FDFDFD" transform="translate(541,294)"/>
<path d="M0 0 C5.61 0 11.22 0 17 0 C17 0.33 17 0.66 17 1 C11.39 1 5.78 1 0 1 C0 0.67 0 0.34 0 0 Z " fill="#FDFDFD" transform="translate(459,294)"/>
<path d="M0 0 C4.29 0 8.58 0 13 0 C13 0.33 13 0.66 13 1 C8.71 1 4.42 1 0 1 C0 0.67 0 0.34 0 0 Z " fill="#FDFDFD" transform="translate(854,292)"/>
<path d="" fill="#FDFDFD" transform="translate(0,0)"/>
</svg>
